# xmcd
# 
# Track frame offsets:
#     150
#     50291
#     93709
#     140404
# 
# Disc length: 2513
# 
# Revision: 0
# Processed by: cddbd v1.5.2PL0 Copyright (c) Steve Scherf et al.
# Submitted via: fre:ac v1.0.17
# 
DISCID=3109cf04
DTITLE=Kleine Prinzessin - Königlicher Unfug
DYEAR=2009
DGENRE=Hörspiel
TTITLE0=Ich will zaubern
TTITLE1=Ich mag keinen Salat
TTITLE2=Ich will nicht aufräumen
TTITLE3=Ich will nicht teilen
EXTD=
EXTT0=
EXTT1=
EXTT2=
EXTT3=
PLAYORDER=
